<?xml version="1.0" encoding="utf-8"?>
<!-- Generator: Adobe Illustrator 21.0.0, SVG Export Plug-In . SVG Version: 6.00 Build 0)  -->
<svg version="1.1" id="Ebene_1" xmlns="http://www.w3.org/2000/svg" xmlns:xlink="http://www.w3.org/1999/xlink" x="0px" y="0px"
	 viewBox="0 0 248 28.6" style="enable-background:new 0 0 248 28.6;" xml:space="preserve">
<style type="text/css">
	.st0{fill:#FFFFFF;}
</style>
<g>
	<path class="st0" d="M49.9,12.3l-18.9,0l-0.8,1.4c-0.1,0.2-0.2,0.4-0.2,0.7c0,0.2,0.1,0.5,0.2,0.7l1.6,2.7c0.1,0.2,0.2,0.4,0.2,0.7
		c0,0.3-0.1,0.5-0.2,0.7l-2.3,4c-0.5,0.8-1.4,1.4-2.4,1.4l-10.2,0c-0.8,0-1.4-0.6-1.4-1.4c0-0.2,0.1-0.5,0.2-0.7l9.8-17
		c0.5-0.8,1.4-1.4,2.4-1.4l26.7,0L57,0H19.2c-3,0-5.7,1.6-7.1,4.1L0.4,24.5c0,0-0.4,0.9-0.4,1.4c0,1.5,1.2,2.7,2.7,2.7l33,0
		c3,0,5.7-1.6,7.1-4.1L49.9,12.3z"/>
	<path class="st0" d="M153.7,4.1c0.2-0.4,0.4-0.9,0.4-1.4c0-1.5-1.2-2.7-2.7-2.7l-33,0c-3,0-5.7,1.6-7.1,4.1L99.4,24.5
		c-0.2,0.4-0.4,0.9-0.4,1.4c0,1.5,1.2,2.7,2.7,2.7l33,0c3,0,5.7-1.6,7.1-4.1L153.7,4.1z M128.5,23.2c-0.5,0.8-1.4,1.4-2.4,1.4
		l-10.2,0c-0.8,0-1.4-0.6-1.4-1.4c0-0.2,0.1-0.5,0.2-0.7l9.8-17c0.5-0.8,1.4-1.4,2.4-1.4l10.2,0c0.8,0,1.4,0.6,1.4,1.4
		c0,0.2-0.1,0.5-0.2,0.7L128.5,23.2z"/>
	<polygon class="st0" points="92.3,0 85.3,12.3 71.1,12.3 78.2,0 64,0 47.5,28.6 61.7,28.6 68.7,16.3 82.9,16.3 75.8,28.6 90,28.6 
		106.5,0 	"/>
	<path class="st0" d="M167.8,0c-3,0-5.7,1.6-7.1,4.1l-4.7,8.2c-0.2,0.4-0.4,0.9-0.4,1.4c0,1.5,1.2,2.7,2.7,2.7l21.2,0
		c0.8,0,1.4,0.6,1.4,1.4c0,0.2-0.1,0.5-0.2,0.7l-2.7,4.8c-0.5,0.8-1.4,1.4-2.4,1.4l-26.7,0l-2.4,4.1l37.8,0c3.1,0,5.7-1.7,7.1-4.2
		l4.7-8.1c0.2-0.4,0.4-0.9,0.4-1.4c0-1.5-1.2-2.7-2.7-2.7l-21.2,0c-0.8,0-1.4-0.6-1.4-1.4c0-0.2,0.1-0.5,0.2-0.7l2.8-4.8
		c0.5-0.8,1.4-1.4,2.4-1.4l26.7,0l2.4-4.1L167.8,0z"/>
	<polygon class="st0" points="210.3,0 207.9,4.1 217.4,4.1 203.2,28.6 217.4,28.6 231.5,4.1 245.7,4.1 248,0 	"/>
</g>
</svg>
